<svg xmlns="http://www.w3.org/2000/svg" fill="none" viewBox="0 0 128 128">
    <path d="m54,80.26c-4.14,0 -7.5,-3.36 -7.5,-7.5s3.36,-7.5 7.5,-7.5s7.5,3.36 7.5,7.5s-3.36,7.5 -7.5,7.5z" fill="#4F46E5"/>
    <path d="m74,80.26c-4.14,0 -7.5,-3.36 -7.5,-7.5s3.36,-7.5 7.5,-7.5s7.5,3.36 7.5,7.5s-3.36,7.5 -7.5,7.5z" fill="#4F46E5"/>
    <path d="m64,100.26c-19.85,0 -36,-16.15 -36,-36c0,-19.85 16.15,-36 36,-36c19.85,0 36,16.15 36,36c0,19.85 -16.15,36 -36,36zm0,-66c-16.54,0 -30,13.46 -30,30c0,16.54 13.46,30 30,30c16.54,0 30,-13.46 30,-30c0,-16.54 -13.46,-30 -30,-30z" fill="#4F46E5"/>
    <path d="m64,60.26c-6.62,0 -12,-5.38 -12,-12c0,-6.62 5.38,-12 12,-12c6.62,0 12,5.38 12,12c0,6.62 -5.38,12 -12,12zm0,-18c-3.31,0 -6,2.69 -6,6c0,3.31 2.69,6 6,6c3.31,0 6,-2.69 6,-6c0,-3.31 -2.69,-6 -6,-6z" fill="#10B981"/>
    <circle cx="64" cy="48.26" r="3" fill="#10B981"/>
</svg> 